<svg xmlns="http://www.w3.org/2000/svg" xmlns:xlink="http://www.w3.org/1999/xlink" id="Layer_1" x="0px" y="0px" viewBox="0 0 294.49 93.28" style="enable-background:new 0 0 294.49 93.28;" xml:space="preserve"><style type="text/css">	.st0{fill:#002D4B;}	.st1{fill:#F43236;}</style><g>	<path class="st0" d="M140.58,42.01c-2.36,2.56-5.6,4.03-9.24,4.03c-3.44,0-6.59-1.28-8.94-3.64c-3.29-3.29-3.29-6.73-3.29-14.15  s0-10.86,3.29-14.15c2.36-2.36,5.46-3.64,8.94-3.64c4.62,0,7.37,1.67,10.47,4.77l-2.51,2.51c-2.46-2.46-4.37-3.93-7.96-3.93  c-2.31,0-4.52,0.93-6.04,2.51c-2.21,2.26-2.46,4.62-2.46,11.94c0,7.32,0.25,9.73,2.46,11.99c1.52,1.57,3.73,2.46,6.04,2.46  c2.56,0,4.96-1.03,6.59-3c1.43-1.67,1.92-3.74,1.92-6.39v-2.6h-8.5v-3.29h12.24v5.55C143.58,37,142.75,39.7,140.58,42.01z"></path>	<path class="st0" d="M151.15,45.75V10.75h3.73V42.4h17.89v3.34H151.15z"></path>	<path class="st0" d="M196.41,42.4c-2.36,2.36-5.46,3.64-8.95,3.64c-3.49,0-6.59-1.28-8.94-3.64c-3.29-3.29-3.29-6.73-3.29-14.15  s0-10.86,3.29-14.15c2.36-2.36,5.46-3.64,8.94-3.64c3.49,0,6.59,1.28,8.95,3.64c3.29,3.29,3.29,6.73,3.29,14.15  S199.71,39.11,196.41,42.4z M193.51,16.31c-1.52-1.57-3.74-2.51-6.05-2.51s-4.52,0.93-6.04,2.51c-2.21,2.26-2.46,4.62-2.46,11.94  c0,7.32,0.25,9.68,2.46,11.94c1.52,1.57,3.73,2.51,6.04,2.51s4.52-0.93,6.05-2.51c2.21-2.26,2.46-4.62,2.46-11.94  C195.97,20.93,195.73,18.57,193.51,16.31z"></path>	<path class="st0" d="M221.14,45.75h-13.61V10.75h13.17c6.09,0,10.32,3.49,10.32,9.34c0,3.69-2.21,6.59-5.16,7.67  c3.34,1.23,5.7,4.13,5.7,8.31C231.56,42.4,227.33,45.75,221.14,45.75z M220.4,14.1h-9.14v12.14h9.14c3.88,0,6.88-1.92,6.88-6.09  S224.28,14.1,220.4,14.1z M220.79,29.58h-9.53V42.4h9.53c4.33,0,7.03-2.51,7.03-6.44C227.82,32.03,225.12,29.58,220.79,29.58z"></path>	<path class="st0" d="M260.75,45.75l-2.8-7.91h-15.29l-2.8,7.91h-3.98l12.88-34.99h3.15l12.83,34.99H260.75z M250.38,16.11  l-6.59,18.48h13.07L250.38,16.11z"></path>	<path class="st0" d="M270.38,45.75V10.75h3.73V42.4h17.89v3.34H270.38z"></path>	<g>		<path class="st0" d="M138.81,64.51c0-4.36-3-7.18-7.64-7.18h-9.84v25.55h3.04V71.69h5.77l5.73,11.18h3.54l-6.01-11.49   C136.8,70.6,138.81,68.04,138.81,64.51z M135.77,64.54c0,2.77-1.81,4.43-4.85,4.43h-6.55v-8.89h6.55   C133.96,60.08,135.77,61.75,135.77,64.54z"></path>		<polygon class="st0" points="143.56,82.88 159.55,82.88 159.55,80.12 146.6,80.12 146.6,71.37 157.64,71.37 157.64,68.62    146.6,68.62 146.6,60.08 159.55,60.08 159.55,57.33 143.56,57.33   "></polygon>		<path class="st0" d="M178.14,70.64c-1.14-0.99-2.37-1.46-4.69-1.81l-2.76-0.42c-1.36-0.22-2.59-0.72-3.31-1.34   c-0.71-0.61-1.07-1.55-1.07-2.77c0-2.77,1.97-4.5,5.13-4.5c2.44,0,4.11,0.61,5.76,2.11l0.12,0.11l1.98-1.98l-0.14-0.12   c-2.21-1.99-4.42-2.81-7.62-2.81c-5.01,0-8.24,2.86-8.24,7.29c0,2.05,0.66,3.67,1.97,4.84c1.11,0.96,2.69,1.62,4.73,1.95   l2.94,0.46c1.87,0.29,2.43,0.49,3.2,1.16c0.75,0.65,1.14,1.69,1.14,3.02c0,2.82-2.16,4.5-5.77,4.5c-2.94,0-4.77-0.73-6.74-2.71   l-0.12-0.12l-2.09,2.09l0.12,0.12c2.4,2.4,4.94,3.38,8.76,3.38c5.39,0,8.88-2.87,8.88-7.32   C180.33,73.62,179.57,71.85,178.14,70.64z"></path>		<path class="st0" d="M194.17,57.33h-9.55v25.55h3.04V72.51h6.52c4.76,0,7.96-3.06,7.96-7.61   C202.13,60.37,198.93,57.33,194.17,57.33z M199.1,64.9c0,3.04-1.93,4.85-5.17,4.85h-6.27v-9.67h6.27   C197.21,60.08,199.1,61.84,199.1,64.9z"></path>		<path class="st0" d="M214.95,57.11c-2.55,0-4.82,0.92-6.56,2.67c-2.42,2.42-2.42,4.9-2.42,10.32c0,5.42,0,7.89,2.42,10.32   c1.75,1.75,4.02,2.67,6.56,2.67s4.82-0.92,6.57-2.67c2.42-2.42,2.42-4.9,2.42-10.32c0-5.42,0-7.89-2.42-10.32   C219.76,58.04,217.49,57.11,214.95,57.11z M220.9,70.1c0,5.37-0.2,6.93-1.72,8.48c-1.08,1.11-2.62,1.75-4.23,1.75   s-3.15-0.64-4.23-1.75c-1.52-1.55-1.72-3.11-1.72-8.48c0-5.37,0.2-6.93,1.72-8.48c1.08-1.11,2.62-1.75,4.23-1.75   s3.15,0.64,4.23,1.75l0,0C220.69,63.17,220.9,64.73,220.9,70.1z"></path>		<polygon class="st0" points="245.85,77.06 232.79,57.4 232.74,57.33 229.92,57.33 229.92,82.88 232.96,82.88 232.96,63.07    246.01,82.8 246.07,82.88 248.88,82.88 248.88,57.33 245.85,57.33   "></polygon>		<path class="st0" d="M269.17,70.64c-1.14-0.99-2.37-1.46-4.69-1.81l-2.76-0.42c-1.36-0.22-2.59-0.72-3.31-1.34   c-0.71-0.61-1.07-1.55-1.07-2.77c0-2.77,1.97-4.5,5.13-4.5c2.44,0,4.11,0.61,5.76,2.11l0.12,0.11l1.98-1.98l-0.14-0.12   c-2.21-1.99-4.42-2.81-7.62-2.81c-5.01,0-8.24,2.86-8.24,7.29c0,2.05,0.66,3.68,1.97,4.84c1.11,0.96,2.69,1.62,4.72,1.95   l2.94,0.46c1.86,0.29,2.43,0.49,3.2,1.16c0.75,0.65,1.14,1.69,1.14,3.02c0,2.82-2.16,4.5-5.77,4.5c-2.94,0-4.77-0.73-6.74-2.71   l-0.12-0.12l-2.09,2.09l0.12,0.12c2.4,2.4,4.94,3.38,8.76,3.38c5.39,0,8.88-2.87,8.88-7.32C271.36,73.62,270.6,71.85,269.17,70.64   z"></path>		<polygon class="st0" points="291.64,60.08 291.64,57.33 275.65,57.33 275.65,82.88 291.64,82.88 291.64,80.12 278.69,80.12    278.69,71.37 289.73,71.37 289.73,68.62 278.69,68.62 278.69,60.08   "></polygon>	</g></g><path class="st1" d="M33.96,30.77c-2.98,0-5.39,2.41-5.39,5.39v21.76c0,2.98,2.41,5.39,5.39,5.39h30.09c2.98,0,5.39-2.41,5.39-5.39 v-9.14H47.13c-1.49,0-2.69-1.2-2.69-2.69c0-1.49,1.2-2.69,2.69-2.69h27.22v14.52c0,5.69-4.61,10.29-10.29,10.29H33.96 c-5.69,0-10.29-4.61-10.29-10.29V36.16c0-5.69,4.61-10.29,10.29-10.29H89.7C82.11,11.13,66.75,1.05,49.04,1.05 c-25.25,0-45.72,20.47-45.72,45.72c0,25.25,20.47,45.72,45.72,45.72c25.25,0,45.72-20.47,45.72-45.72c0-5.63-1.02-11.02-2.89-16 H33.96z"></path></svg>